<mxfile host="app.diagrams.net" agent="Mozilla/5.0 (Windows NT 10.0; Win64; x64) AppleWebKit/537.36 (KHTML, like Gecko) Chrome/131.0.0.0 Safari/537.36 Edg/131.0.0.0" version="25.0.3">
  <diagram name="Page-1" id="SAJuzJpUicz_NdNRBmkV">
    <mxGraphModel dx="1042" dy="535" grid="1" gridSize="10" guides="1" tooltips="1" connect="1" arrows="1" fold="1" page="1" pageScale="1" pageWidth="850" pageHeight="1100" math="0" shadow="0">
      <root>
        <mxCell id="0" />
        <mxCell id="1" parent="0" />
        <mxCell id="aoKa_XFCQUV2A6NjJ6iD-1" value="" style="ellipse;whiteSpace=wrap;html=1;fillColor=#000000;" vertex="1" parent="1">
          <mxGeometry x="110" width="120" height="80" as="geometry" />
        </mxCell>
        <mxCell id="aoKa_XFCQUV2A6NjJ6iD-2" value="" style="ellipse;whiteSpace=wrap;html=1;fillColor=#000000;" vertex="1" parent="1">
          <mxGeometry x="720" y="375" width="120" height="80" as="geometry" />
        </mxCell>
        <mxCell id="aoKa_XFCQUV2A6NjJ6iD-3" value="Start" style="text;strokeColor=none;align=center;fillColor=none;html=1;verticalAlign=middle;whiteSpace=wrap;rounded=0;fontColor=#FFFFFF;" vertex="1" parent="1">
          <mxGeometry x="140" y="25" width="60" height="30" as="geometry" />
        </mxCell>
        <mxCell id="aoKa_XFCQUV2A6NjJ6iD-4" value="End" style="text;strokeColor=none;align=center;fillColor=none;html=1;verticalAlign=middle;whiteSpace=wrap;rounded=0;fontColor=#FFFFFF;" vertex="1" parent="1">
          <mxGeometry x="750" y="400" width="60" height="30" as="geometry" />
        </mxCell>
        <mxCell id="aoKa_XFCQUV2A6NjJ6iD-5" value="" style="shape=parallelogram;perimeter=parallelogramPerimeter;whiteSpace=wrap;html=1;fixedSize=1;fontColor=#000000;fillColor=#000000;" vertex="1" parent="1">
          <mxGeometry x="110" y="120" width="120" height="40" as="geometry" />
        </mxCell>
        <mxCell id="aoKa_XFCQUV2A6NjJ6iD-21" style="edgeStyle=orthogonalEdgeStyle;rounded=0;orthogonalLoop=1;jettySize=auto;html=1;entryX=0.75;entryY=0;entryDx=0;entryDy=0;" edge="1" parent="1" source="aoKa_XFCQUV2A6NjJ6iD-6" target="aoKa_XFCQUV2A6NjJ6iD-7">
          <mxGeometry relative="1" as="geometry" />
        </mxCell>
        <mxCell id="aoKa_XFCQUV2A6NjJ6iD-6" value="Nhập a, b, c" style="text;strokeColor=none;align=center;fillColor=none;html=1;verticalAlign=middle;whiteSpace=wrap;rounded=0;fontColor=#FFFFFF;" vertex="1" parent="1">
          <mxGeometry x="140" y="125" width="70" height="30" as="geometry" />
        </mxCell>
        <mxCell id="aoKa_XFCQUV2A6NjJ6iD-7" value="" style="rounded=0;whiteSpace=wrap;html=1;fillColor=#000000;" vertex="1" parent="1">
          <mxGeometry x="110" y="200" width="120" height="40" as="geometry" />
        </mxCell>
        <mxCell id="aoKa_XFCQUV2A6NjJ6iD-8" value="delta= b*b -4*a*c" style="text;strokeColor=none;align=center;fillColor=none;html=1;verticalAlign=middle;whiteSpace=wrap;rounded=0;fontColor=#FFFFFF;" vertex="1" parent="1">
          <mxGeometry x="120" y="205" width="100" height="30" as="geometry" />
        </mxCell>
        <mxCell id="aoKa_XFCQUV2A6NjJ6iD-9" value="" style="strokeWidth=2;html=1;shape=mxgraph.flowchart.decision;whiteSpace=wrap;fillColor=#000033;" vertex="1" parent="1">
          <mxGeometry x="110" y="285" width="100" height="60" as="geometry" />
        </mxCell>
        <mxCell id="aoKa_XFCQUV2A6NjJ6iD-26" style="edgeStyle=orthogonalEdgeStyle;rounded=0;orthogonalLoop=1;jettySize=auto;html=1;entryX=0;entryY=0.5;entryDx=0;entryDy=0;" edge="1" parent="1" source="aoKa_XFCQUV2A6NjJ6iD-10" target="aoKa_XFCQUV2A6NjJ6iD-11">
          <mxGeometry relative="1" as="geometry" />
        </mxCell>
        <mxCell id="aoKa_XFCQUV2A6NjJ6iD-10" value="delta&amp;lt;0" style="text;strokeColor=none;align=center;fillColor=none;html=1;verticalAlign=middle;whiteSpace=wrap;rounded=0;fontColor=#FFFFFF;" vertex="1" parent="1">
          <mxGeometry x="110" y="300" width="100" height="30" as="geometry" />
        </mxCell>
        <mxCell id="aoKa_XFCQUV2A6NjJ6iD-11" value="" style="rounded=0;whiteSpace=wrap;html=1;fillColor=#000000;" vertex="1" parent="1">
          <mxGeometry x="280" y="295" width="120" height="40" as="geometry" />
        </mxCell>
        <mxCell id="aoKa_XFCQUV2A6NjJ6iD-27" style="edgeStyle=orthogonalEdgeStyle;rounded=0;orthogonalLoop=1;jettySize=auto;html=1;" edge="1" parent="1" source="aoKa_XFCQUV2A6NjJ6iD-12" target="aoKa_XFCQUV2A6NjJ6iD-2">
          <mxGeometry relative="1" as="geometry" />
        </mxCell>
        <mxCell id="aoKa_XFCQUV2A6NjJ6iD-12" value="Phương trình vô nghiệm" style="text;strokeColor=none;align=center;fillColor=none;html=1;verticalAlign=middle;whiteSpace=wrap;rounded=0;fontColor=#FFFFFF;" vertex="1" parent="1">
          <mxGeometry x="290" y="300" width="100" height="30" as="geometry" />
        </mxCell>
        <mxCell id="aoKa_XFCQUV2A6NjJ6iD-25" style="edgeStyle=orthogonalEdgeStyle;rounded=0;orthogonalLoop=1;jettySize=auto;html=1;entryX=0;entryY=0.5;entryDx=0;entryDy=0;" edge="1" parent="1" source="aoKa_XFCQUV2A6NjJ6iD-15" target="aoKa_XFCQUV2A6NjJ6iD-19">
          <mxGeometry relative="1" as="geometry" />
        </mxCell>
        <mxCell id="aoKa_XFCQUV2A6NjJ6iD-15" value="" style="strokeWidth=2;html=1;shape=mxgraph.flowchart.decision;whiteSpace=wrap;fillColor=#000033;" vertex="1" parent="1">
          <mxGeometry x="110" y="380" width="100" height="60" as="geometry" />
        </mxCell>
        <mxCell id="aoKa_XFCQUV2A6NjJ6iD-24" style="edgeStyle=orthogonalEdgeStyle;rounded=0;orthogonalLoop=1;jettySize=auto;html=1;entryX=0;entryY=0.5;entryDx=0;entryDy=0;" edge="1" parent="1" source="aoKa_XFCQUV2A6NjJ6iD-16" target="aoKa_XFCQUV2A6NjJ6iD-17">
          <mxGeometry relative="1" as="geometry" />
        </mxCell>
        <mxCell id="aoKa_XFCQUV2A6NjJ6iD-16" value="delta=0" style="text;strokeColor=none;align=center;fillColor=none;html=1;verticalAlign=middle;whiteSpace=wrap;rounded=0;fontColor=#FFFFFF;" vertex="1" parent="1">
          <mxGeometry x="110" y="395" width="100" height="30" as="geometry" />
        </mxCell>
        <mxCell id="aoKa_XFCQUV2A6NjJ6iD-28" style="edgeStyle=orthogonalEdgeStyle;rounded=0;orthogonalLoop=1;jettySize=auto;html=1;" edge="1" parent="1" source="aoKa_XFCQUV2A6NjJ6iD-17">
          <mxGeometry relative="1" as="geometry">
            <mxPoint x="710" y="417.5" as="targetPoint" />
          </mxGeometry>
        </mxCell>
        <mxCell id="aoKa_XFCQUV2A6NjJ6iD-17" value="" style="rounded=0;whiteSpace=wrap;html=1;fillColor=#000000;" vertex="1" parent="1">
          <mxGeometry x="280" y="395" width="330" height="45" as="geometry" />
        </mxCell>
        <mxCell id="aoKa_XFCQUV2A6NjJ6iD-18" value="Phương trình có nghiệm kép. x1=x2=(-b)/2a" style="text;strokeColor=none;align=center;fillColor=none;html=1;verticalAlign=middle;whiteSpace=wrap;rounded=0;fontColor=#FFFFFF;" vertex="1" parent="1">
          <mxGeometry x="290" y="400" width="310" height="30" as="geometry" />
        </mxCell>
        <mxCell id="aoKa_XFCQUV2A6NjJ6iD-29" style="edgeStyle=orthogonalEdgeStyle;rounded=0;orthogonalLoop=1;jettySize=auto;html=1;entryX=0.5;entryY=1;entryDx=0;entryDy=0;" edge="1" parent="1" source="aoKa_XFCQUV2A6NjJ6iD-19" target="aoKa_XFCQUV2A6NjJ6iD-2">
          <mxGeometry relative="1" as="geometry" />
        </mxCell>
        <mxCell id="aoKa_XFCQUV2A6NjJ6iD-19" value="" style="rounded=0;whiteSpace=wrap;html=1;fillColor=#000000;" vertex="1" parent="1">
          <mxGeometry x="280" y="490" width="330" height="45" as="geometry" />
        </mxCell>
        <mxCell id="aoKa_XFCQUV2A6NjJ6iD-20" value="Phương trình có 2 nghiệm phân biệt&lt;br&gt;&lt;div&gt;&amp;nbsp;x1 = (-b + sqrt(delta) / 2a)&lt;/div&gt;&lt;div&gt;&amp;nbsp;x2 = (-b - sqrt(delta) / 2a)&lt;/div&gt;" style="text;strokeColor=none;align=center;fillColor=none;html=1;verticalAlign=middle;whiteSpace=wrap;rounded=0;fontColor=#FFFFFF;" vertex="1" parent="1">
          <mxGeometry x="280" y="497.5" width="310" height="30" as="geometry" />
        </mxCell>
        <mxCell id="aoKa_XFCQUV2A6NjJ6iD-22" style="edgeStyle=orthogonalEdgeStyle;rounded=0;orthogonalLoop=1;jettySize=auto;html=1;entryX=0.608;entryY=0.097;entryDx=0;entryDy=0;entryPerimeter=0;" edge="1" parent="1" source="aoKa_XFCQUV2A6NjJ6iD-8" target="aoKa_XFCQUV2A6NjJ6iD-9">
          <mxGeometry relative="1" as="geometry" />
        </mxCell>
        <mxCell id="aoKa_XFCQUV2A6NjJ6iD-23" style="edgeStyle=orthogonalEdgeStyle;rounded=0;orthogonalLoop=1;jettySize=auto;html=1;entryX=0.5;entryY=0;entryDx=0;entryDy=0;entryPerimeter=0;" edge="1" parent="1" source="aoKa_XFCQUV2A6NjJ6iD-9" target="aoKa_XFCQUV2A6NjJ6iD-15">
          <mxGeometry relative="1" as="geometry" />
        </mxCell>
        <mxCell id="aoKa_XFCQUV2A6NjJ6iD-30" value="true" style="text;strokeColor=none;align=center;fillColor=none;html=1;verticalAlign=middle;whiteSpace=wrap;rounded=0;fontColor=#000033;" vertex="1" parent="1">
          <mxGeometry x="190" y="285" width="100" height="30" as="geometry" />
        </mxCell>
        <mxCell id="aoKa_XFCQUV2A6NjJ6iD-31" value="true" style="text;strokeColor=none;align=center;fillColor=none;html=1;verticalAlign=middle;whiteSpace=wrap;rounded=0;fontColor=#000033;" vertex="1" parent="1">
          <mxGeometry x="210" y="390" width="100" height="30" as="geometry" />
        </mxCell>
        <mxCell id="aoKa_XFCQUV2A6NjJ6iD-32" value="false" style="text;strokeColor=none;align=center;fillColor=none;html=1;verticalAlign=middle;whiteSpace=wrap;rounded=0;fontColor=#000033;" vertex="1" parent="1">
          <mxGeometry x="200" y="520" width="100" height="30" as="geometry" />
        </mxCell>
        <mxCell id="aoKa_XFCQUV2A6NjJ6iD-33" value="false" style="text;strokeColor=none;align=center;fillColor=none;html=1;verticalAlign=middle;whiteSpace=wrap;rounded=0;fontColor=#000033;" vertex="1" parent="1">
          <mxGeometry x="60" y="345" width="100" height="30" as="geometry" />
        </mxCell>
      </root>
    </mxGraphModel>
  </diagram>
</mxfile>
